<svg xmlns="http://www.w3.org/2000/svg" viewBox="0 0 112.07143 102.88691"><path d="M111.91848,57.50045,78.04121,91.37772a1.541,1.541,0,0,1-2.17935,0l-5.08515-5.08515a1.541,1.541,0,0,1,0-2.17935L92.84344,62.0465a3.082,3.082,0,0,1,1.38169-.79771l17.19718-4.60774A.51368.51368,0,0,1,111.91848,57.50045Z" fill="#fff"/><path d="M89.22261,6.07606l12.39994,46.27721a1.541,1.541,0,0,1-1.08967,1.88737l-6.94645,1.8613a1.541,1.541,0,0,1-1.88737-1.08968l-8.077-30.14371a3.0821,3.0821,0,0,1,0-1.59543L88.23026,6.07605A.51368.51368,0,0,1,89.22261,6.07606Z" fill="#fff"/><path d="M33.33984.01906,79.61706,12.419a1.541,1.541,0,0,1,1.08967,1.88738l-1.86129,6.94644a1.541,1.541,0,0,1-1.88737,1.08967l-30.14371-8.077a3.08205,3.08205,0,0,1-1.38168-.79773L32.84367.87846A.51368.51368,0,0,1,33.33984.01906Z" fill="#fff"/><path d="M.153,45.38646,34.03022,11.50919a1.541,1.541,0,0,1,2.17935,0l5.08515,5.08514a1.541,1.541,0,0,1,0,2.17935L19.228,40.84041a3.082,3.082,0,0,1-1.38169.79771L.64912,46.24586A.51368.51368,0,0,1,.153,45.38646Z" fill="#fff"/><path d="M22.84882,96.81085,10.44888,50.53364a1.541,1.541,0,0,1,1.08967-1.88737L18.485,46.785a1.541,1.541,0,0,1,1.88737,1.08968l8.077,30.14371a3.0821,3.0821,0,0,1,0,1.59543L23.84117,96.81086A.51368.51368,0,0,1,22.84882,96.81085Z" fill="#fff"/><path d="M78.73158,102.86785l-46.27721-12.4a1.541,1.541,0,0,1-1.08967-1.88737L33.226,81.63409a1.541,1.541,0,0,1,1.88737-1.08967l30.14371,8.077a3.08209,3.08209,0,0,1,1.38168.79772l12.589,12.58933A.51368.51368,0,0,1,78.73158,102.86785Z" fill="#fff"/></svg>
