<svg xmlns="http://www.w3.org/2000/svg" viewBox="0 0 23.07309 31.75903"><path d="M11.52768,31.50952a1.4244,1.4244,0,0,1-.85059-.28125,31.761,31.761,0,0,1-5.91015-5.64844,31.01247,31.01247,0,0,1-2.7002-3.95507l-.03418-.05957-.01367-.09278c.00586-.49512.23438-.6416.37109-.68457l.11719-.0664c-.14453-.15528-.27637-.293-.40527-.44727A4.83589,4.83589,0,0,1,1.223,18.65991c-.15918-.49707-.40918-1.2998-.68652-2.30664C.13217,14.8855.25034,14.40405.3558,14.2478l.23438-.44238a.63516.63516,0,0,1-.07129-.51172A.96376.96376,0,0,1,.639,13.03491a7.47634,7.47634,0,0,0,.54-.9541,1.526,1.526,0,0,0,.13769-.47168,6.46692,6.46692,0,0,1,.39551-1.55762c.03418-.08593.06738-.18164.09961-.28418L2.1478,8.67065A2.792,2.792,0,0,1,3.68491,6.99194a1.16224,1.16224,0,0,0,.39257-.31054,1.525,1.525,0,0,1,.39161-.38965,1.61118,1.61118,0,0,0,.20019-.125c.167-.12207.60254-.43946.9961-.71485l-.04786-.02832-.05468-.13964a.40207.40207,0,0,1-.043-.33887l.36718-1.57813a3.49485,3.49485,0,0,0,.0918-.8457c0-.0166-.02539-1.69434.41016-2.13574A.42265.42265,0,0,1,6.69565.24976H6.7435L6.85385.281a1.96466,1.96466,0,0,1,.94141,1.126A6.13965,6.13965,0,0,0,9.266,3.65991l.10352.09375.00683.2041c.27832.05957.52051.10254.76074.17578a9.82775,9.82775,0,0,0,2.71583.37989l.30859-.00489a1.34764,1.34764,0,0,1,.85254.22461,3.03055,3.03055,0,0,1,.40234-.17578,1.84572,1.84572,0,0,0,.94336-.751,2.65142,2.65142,0,0,1,.4502-.51953c.63281-.5625,1.78418-1.57813,2.38769-2.06055a.95709.95709,0,0,1,.59863-.2334c.748,0,1.12793,1.03418,1.14356,1.07812.04687.2129.17871.90625.3457,2.45118a5.24577,5.24577,0,0,1-.27832,2.74511c-.14453.18555-.24316.3086-.32715.416l.04.01855.0791.14844.05957.124c.00977.11328-.04394.21484-.166.39941a1.59389,1.59389,0,0,0-.21387.38086.66606.66606,0,0,1,.21973.27344l.08984.0664a.31633.31633,0,0,0,.05762-.124.50244.50244,0,0,0-.02539-.23242.45567.45567,0,0,1-.01856-.21778l.01465-.07422.0625-.05761.0791-.05469.04493-.01758.06054-.00293c.2666,0,.48731.39746.5459.61035a.73612.73612,0,0,1,.01758.35254.42335.42335,0,0,0-.00488.11524c.09961.09472.15039.13476.19824.1914a1.289,1.289,0,0,1,.20019.48926l.04688.15918a.95542.95542,0,0,1-.02246.69922c-.043.11816-.04492.14062-.02344.18555a.22963.22963,0,0,0,.10352.09765.44608.44608,0,0,1,.248.35938.37939.37939,0,0,1-.08008.30273.93724.93724,0,0,0-.13867.83789.591.591,0,0,0,.1377.16114.58982.58982,0,0,1,.23047.40429.64628.64628,0,0,1-.0127.21973.32918.32918,0,0,0,.13184.27148,1.26041,1.26041,0,0,1,.33691.542.74039.74039,0,0,1,.00781.35253.13726.13726,0,0,0,.00782.1084.37459.37459,0,0,0,.1289.14942.46263.46263,0,0,1,.2168.373.405.405,0,0,1-.1543.32032l.09668.16406a.7618.7618,0,0,1,.31055.57617.48008.48008,0,0,1-.12207.28223,1.20651,1.20651,0,0,1,.21094.38574.59279.59279,0,0,1-.1875.53613.80312.80312,0,0,0,.17968.34473l.10547.14062-.09765.14747c-.082.20605-.18555.44433-.28809.6748a30.90958,30.90958,0,0,1-4.10742,6.71191,31.65992,31.65992,0,0,1-5.90918,5.64844A1.41511,1.41511,0,0,1,11.52768,31.50952Z" fill="#f7f7f7"/><path d="M6.69479.5a.17337.17337,0,0,1,.066.01367,1.74707,1.74707,0,0,1,.7981.97608l.00183.00512A6.4,6.4,0,0,0,9.09824,3.846.078.078,0,0,1,9.13,3.91211a.2939.2939,0,0,0,.27527.34326,2.70619,2.70619,0,0,1,.65894.11743,10.07839,10.07839,0,0,0,2.7887.39087c.09741,0,.159-.00171.17956-.00244l.00879-.00049c.04175-.00171.08166-.00244.12036-.00244A1.13552,1.13552,0,0,1,13.857,4.928a.29462.29462,0,0,0,.18542.06592.29082.29082,0,0,0,.17664-.05957.903.903,0,0,1,.27221-.13892,2.09306,2.09306,0,0,0,1.07691-.85156,2.36388,2.36388,0,0,1,.409-.47c.50232-.44727,1.73938-1.54346,2.37671-2.05225a.71119.71119,0,0,1,.4419-.17895c.56164,0,.8949.87548.90906.91357l.00061.00122c.017.08106.152.73242.33093,2.39136a5.01085,5.01085,0,0,1-.25415,2.60864l-.0011.00171c-.11267.13672-.213.26172-.2981.37085a.29389.29389,0,0,0,.1073.446l.01.00757.0094.01123a.763.763,0,0,1-.13147.24878l-.00293.00464a1.54622,1.54622,0,0,0-.23938.44849.29293.29293,0,0,0,.14258.32446.14838.14838,0,0,1,.08277.08618l.00586.02539a.2936.2936,0,0,0,.52111.11084A.54622.54622,0,0,0,20.091,9.0188a.7369.7369,0,0,0-.03051-.35083.24345.24345,0,0,1-.01355-.09912l.00415-.00244.01294-.00293c.071,0,.24414.20727.304.426a.4896.4896,0,0,1,.01355.24243l-.00183.00879a.65059.65059,0,0,0-.00647.17554.29619.29619,0,0,0,.10571.197c.01282.01074.03162.02588.04517.03589a.63172.63172,0,0,1,.10559.0957,1.20047,1.20047,0,0,1,.15027.39136c.017.064.03406.12622.051.17651a.709.709,0,0,1-.02111.53467.43676.43676,0,0,0-.01343.37744.4679.4679,0,0,0,.19653.20069c.0857.05517.12622.08911.13147.16382a.15343.15343,0,0,1-.03345.14013,1.16491,1.16491,0,0,0-.15429,1.1062.811.811,0,0,0,.19128.22705.33765.33765,0,0,1,.14551.23658.384.384,0,0,1-.00769.145l-.0011.00708a.45586.45586,0,0,0,.19544.491,1.00639,1.00639,0,0,1,.27636.43311.48712.48712,0,0,1,.00415.24316.38082.38082,0,0,0,.02283.251.62081.62081,0,0,0,.20654.25c.08167.06641.12036.10522.11975.176a.15309.15309,0,0,1-.06274.12793.29287.29287,0,0,0-.02991.4209c.03687.041.08155.0857.11206.11548.14844.14746.24463.25293.23535.37695a.24545.24545,0,0,1-.06579.14258.29236.29236,0,0,0,.02637.40015.38834.38834,0,0,1,.13269.199c.02819.12207-.03931.21192-.13086.31568l-.01111.01294a.29414.29414,0,0,0-.03589.34155c.04346.07519.12439.18555.21423.30566l-.00464.01c-.09924.23658-.20129.47242-.30407.70142a30.67739,30.67739,0,0,1-4.07324,6.65771,31.50588,31.50588,0,0,1-5.86377,5.60376,1.17721,1.17721,0,0,1-1.40259,0,31.50053,31.50053,0,0,1-5.86377-5.60376A30.64092,30.64092,0,0,1,2.28317,21.5l-.01465-.02417v-.00171c.00293-.24585.07337-.40845.19666-.44775.0387-.01294.07275-.02539.10266-.03638A.29387.29387,0,0,0,2.66,20.49634a3.55372,3.55372,0,0,1-.3656-.38208,4.5556,4.5556,0,0,1-.83276-1.5315c-.15967-.49414-.40784-1.29345-.68372-2.29589C.35605,14.75464.54025,14.42065.5632,14.38794l.01648-.02808.2312-.438a.29251.29251,0,0,0-.02112-.30811.272.272,0,0,1-.02941-.25464A.67092.67092,0,0,1,.849,13.17139a7.743,7.743,0,0,0,.5564-.98462,1.79067,1.79067,0,0,0,.15954-.54712,6.23355,6.23355,0,0,1,.37976-1.49585c.03638-.09155.07154-.19312.10559-.30151l.33679-1.09815A2.54854,2.54854,0,0,1,3.7955,7.21606a1.39617,1.39617,0,0,0,.47656-.37793,1.64861,1.64861,0,0,1,.318-.32739,2.07676,2.07676,0,0,0,.22778-.14258c.12964-.09448.58276-.42553.99121-.71069a.293.293,0,0,0-.0177-.49243.07277.07277,0,0,1-.02051-.01929.19661.19661,0,0,1-.00647-.145l.00415-.01587L6.13,3.42383a3.732,3.732,0,0,0,.09864-.9065,4.00285,4.00285,0,0,1,.338-1.956A.17828.17828,0,0,1,6.69479.5m0-.5a.67942.67942,0,0,0-.485.21094c-.4867.49487-.48621,2.01513-.48108,2.31494a3.23375,3.23375,0,0,1-.08582.78516l-.36145,1.561a.662.662,0,0,0,.04859.511c-.33081.23413-.65381.46948-.78382.56445a1.71762,1.71762,0,0,1-.19787.12549,1.70432,1.70432,0,0,0-.4668.45288.90086.90086,0,0,1-.30676.24145A3.02891,3.02891,0,0,0,1.90915,8.59717L1.57224,9.6958c-.02906.09253-.06006.18237-.09229.26343a6.78211,6.78211,0,0,0-.41162,1.62182,1.29132,1.29132,0,0,1-.11548.39307,7.21451,7.21451,0,0,1-.52038.92066,1.16712,1.16712,0,0,0-.15394.33056.80013.80013,0,0,0,.03663.56445l-.17762.33667c-.22363.31641-.17712,1.075.15833,2.29322C.57431,17.43115.8248,18.238.98581,18.73657a5.05652,5.05652,0,0,0,.92456,1.698q.09741.11682.197.22168a.961.961,0,0,0-.33887.812l-.002.1626.09412.13428a30.87607,30.87607,0,0,0,2.71179,3.97168,32.005,32.005,0,0,0,5.95679,5.69311,1.67723,1.67723,0,0,0,1.997-.001,31.99726,31.99726,0,0,0,5.95568-5.69214,31.16839,31.16839,0,0,0,4.13977-6.76612c.10108-.22534.20154-.457.29932-.68969l.1521-.26075-.19849-.26538c-.03686-.04931-.07238-.09643-.10327-.13916a.769.769,0,0,0,.15369-.64966.79306.79306,0,0,0-.15711-.32348.70271.70271,0,0,0,.075-.26441.94718.94718,0,0,0-.348-.73974.65141.65141,0,0,0,.095-.33716.71118.71118,0,0,0-.30432-.56958c-.02649-.02148-.04089-.03369-.04931-.04175a.98117.98117,0,0,0-.01612-.44189,1.47559,1.47559,0,0,0-.39258-.645c-.02233-.02368-.04724-.0503-.06616-.07178l.00122-.00586.00049-.0166.00025-.00147.00207-.01025v-.00146a.90711.90711,0,0,0,.0061-.24122.82022.82022,0,0,0-.30688-.56127.36432.36432,0,0,1-.08936-.09766.79941.79941,0,0,1,.05933-.47485.76786.76786,0,0,1,.06043-.09644.64319.64319,0,0,0,.12792-.47412.68029.68029,0,0,0-.34228-.53394,1.20729,1.20729,0,0,0,.0238-.86425c-.01355-.04-.02722-.09131-.04113-.1438a1.51966,1.51966,0,0,0-.24561-.57862,1.01788,1.01788,0,0,0-.1394-.13769.98247.98247,0,0,0-.02674-.42969c-.08227-.30078-.35351-.76562-.7456-.79687a.54584.54584,0,0,0,.002-.114l-.00928-.10669-.05237-.0935-.03381-.06055-.01025-.0105c.05127-.064.10632-.13183.16491-.20288l.01868-.0227.016-.02466.015-.0232.0133-.02661a5.47,5.47,0,0,0,.30347-2.88476c-.16968-1.57373-.30212-2.26538-.33862-2.43994L20.18137,1.99l-.01868-.03662c-.10107-.25928-.52905-1.21069-1.36682-1.21069a1.19515,1.19515,0,0,0-.75488.28906c-.61243.48877-1.76416,1.5061-2.39624,2.0686a2.87215,2.87215,0,0,0-.49512.57007,1.59044,1.59044,0,0,1-.81165.64917,1.42635,1.42635,0,0,0-.29492.13159,1.75786,1.75786,0,0,0-.88147-.19287c-.04529,0-.09192.001-.14087.00293l-.02331.001c-.03479.00073-.0813.00146-.14453.00146A9.56041,9.56041,0,0,1,10.21115,3.895a3.24423,3.24423,0,0,0-.59631-.12427.592.592,0,0,0-.1792-.2937A5.97022,5.97022,0,0,1,8.04221,1.36011,2.23406,2.23406,0,0,0,6.94882.05029.67319.67319,0,0,0,6.69479,0Z" fill="#0b0b16"/><path d="M18.195,9.31476a.05844.05844,0,0,1-.10053.04613,2.77292,2.77292,0,0,1-.45174-.5933c-.07808-.20077-.40156-.2541-.55141-.29087a.17661.17661,0,0,1-.09773-.0643,3.00679,3.00679,0,0,0-1.31614-.94,1.25367,1.25367,0,0,1-.6348-1.01847s.02563-.18581-.59247-.56972a.10427.10427,0,0,1-.03669-.13819h0a.05847.05847,0,0,1,.09039-.01535c.18636.16609.80656.63828,1.11693-.11568a2.76374,2.76374,0,0,1,.18034-.34992,4.5617,4.5617,0,0,0,.55394-1.482c.06-.54169,1.35346-1.62578,1.8486-2.01006a.85024.85024,0,0,1,.59531-.18277.444.444,0,0,1,.37975.22338,10.52607,10.52607,0,0,1,.41855,1.0843,3.89936,3.89936,0,0,1,.19686.94216,6.43582,6.43582,0,0,1-.04,1.39634,2.36936,2.36936,0,0,1-.6288,1.52454l-.10266.08947a.05868.05868,0,0,1-.07972-.00243h0a.12123.12123,0,0,1-.00086-.1726,2.28881,2.28881,0,0,0,.61722-1.65153c.003-.50823-.00151-.8542-.00776-1.08483a3.5169,3.5169,0,0,0-.12112-.82861,3.47017,3.47017,0,0,0-.42969-1.05127c-.2512-.32131-.74546.02459-.919.16294-.06054.04824-.12189.09494-.18473.14014L17.422,2.704a1.79235,1.79235,0,0,0-.52712.59161,4.23282,4.23282,0,0,0-.31977.772c-.03018.09651-.06422.19219-.10158.28614L16.06657,5.377q-.03048.07664-.06531.15143l-.17408.37374a.29365.29365,0,0,1-.09442.11411.54653.54653,0,0,0-.13522.88948c.23593.24209.368.37843.44184.455a.11738.11738,0,0,0,.17654-.00852l.82633-1.043s.06215-.10108-.08261-.09824a2.89084,2.89084,0,0,1-.457-.06529l1.06609-.55059a.05869.05869,0,0,0-.01947-.11l-.6492-.07249a.17867.17867,0,0,1-.14172-.12255h0a.0587.0587,0,0,1,.03921-.07392l.87254-.25107a.05868.05868,0,0,0-.00555-.11385l-.43414-.08441a.23691.23691,0,0,1-.13432-.074c-.05028-.05761-.07826-.14661.09605-.23147.20249-.09858.55725-.26772.75365-.36118a.70263.70263,0,0,1,.29686-.06815l.28179-.00217a.05869.05869,0,0,1,.05913.05868h0a.12951.12951,0,0,1-.06956.1148l-.47435.23067a.05868.05868,0,0,0,.00082.10446l.77373.32307a.05868.05868,0,0,1-.00555.10732l-.62994.207a.05869.05869,0,0,0,.00283.11174l.32147.014a.05856.05856,0,0,1,.02014.10639c-.18048.11795-.58975.3888-.6761.68509A.174.174,0,0,1,17.738,6.205a1.50371,1.50371,0,0,0-1.007,1.18278A.05894.05894,0,0,0,16.789,7.453c.07484.00347.19778.0549.28945.32045a.05825.05825,0,0,0,.04674.03957.82134.82134,0,0,1,.58547.42072.0586.0586,0,0,0,.09935.003,8.00771,8.00771,0,0,1,.836-1.07248.02942.02942,0,0,1,.04762.03231l-.45582,1.0883a.99766.99766,0,0,0-.07646.34025A5.69944,5.69944,0,0,0,18.195,9.31476Z" fill="#0b0b16"/><path d="M2.30653,14.178a.05852.05852,0,0,1-.089-.0449c-.01666-.21978.05476-.85862.98668-1.5801a20.16771,20.16771,0,0,0,1.77584-1.53186.05848.05848,0,0,0-.02629-.09827c-.25228-.0649-.89679-.2732-.98834-.72485a3.26819,3.26819,0,0,1-.06482-.50889A.82344.82344,0,0,1,4.162,9.0368a1.53923,1.53923,0,0,1,.52859-.32769,1.10074,1.10074,0,0,1,.9.09325,2.8096,2.8096,0,0,1,.43092.29568.399.399,0,0,1,.14022.28155,2.31281,2.31281,0,0,1-.44456,1.28491,5.87471,5.87471,0,0,1-1.33987,1.50468.05852.05852,0,0,0,.02474.10328,3.57289,3.57289,0,0,1,1.358.49964c.04306.03416.088.06559.13331.09677.19334.13323.7268.49815.45537.99351a5.161,5.161,0,0,1-1.58078,1.5944.71512.71512,0,0,0-.31363.28034.35716.35716,0,0,0,.08939.50245.6628.6628,0,0,0,.12865.07856,8.70839,8.70839,0,0,0,2.71654.83267c.04213.00282.084.0061.126.01067a1.75562,1.75562,0,0,0,.97-.163,1.805,1.805,0,0,1,1.03287-.20394c.10536.01645.71708.08553.28946.28289a7.63239,7.63239,0,0,1-.86956.32086.67316.67316,0,0,1-.34838.01417.80625.80625,0,0,1-.16142-.05394.11.11,0,0,0-.12226.01723,1.4305,1.4305,0,0,1-.69849.34362,8.36429,8.36429,0,0,1-2.10444-.34231,1.20777,1.20777,0,0,0-.32256-.03791,3.735,3.735,0,0,1-1.391-.2068s-.35677-.1114.06626.59923a1.98554,1.98554,0,0,0,.95884.8477c.03968.01539.07948.02989.11886.046a3.6509,3.6509,0,0,0,2.01593-.03A2.98731,2.98731,0,0,1,7.3008,18.544a4.15029,4.15029,0,0,1,1.25375.03581s.13252.11432-.265.15909-1.35573.26394-1.35573.26394a5.97029,5.97029,0,0,1-2.0285.06116A2.61248,2.61248,0,0,1,3.484,17.811a1.429,1.429,0,0,1-.18863-.505c-.055-.31758-.2019-.87969-.56732-1.05373a.93555.93555,0,0,1-.219-.13629,1.18617,1.18617,0,0,1-.33317-.45415.61658.61658,0,0,0-.13715-.22659.84988.84988,0,0,0-.06366-.05755.18129.18129,0,0,1-.06035-.206.29392.29392,0,0,1,.4735-.12549,1.121,1.121,0,0,1,.40254.57136,1.31675,1.31675,0,0,0,.23049.43414.48367.48367,0,0,0,.63534.19379c.3501-.20269.30316-.43735.25031-.55179a1.07078,1.07078,0,0,1-.05727-.15793c-.04683-.16533-.23127-.53134-.95755-.8142,0,0-.12085-.04648-.09179-.5256a.267.267,0,0,0-.05713-.18878c-.056-.06622-.15288-.10755-.30358.04945C2.4287,14.068,2.30653,14.178,2.30653,14.178Z" fill="#0b0b16"/><path d="M3.855,12.93878l1.37508.13558a.04975.04975,0,0,0,.05486-.04949h0a.04975.04975,0,0,0-.04117-.049l-1.44222-.242a.05868.05868,0,0,0-.06826.04978h0A.13707.13707,0,0,0,3.855,12.93878Z" fill="#fff"/><path d="M4.94648,9.021a.0481.0481,0,0,0,.029-.05226h0A.04776.04776,0,0,0,4.912,8.932a.99669.99669,0,0,0-.62608,1.20583.052.052,0,0,0,.05391.04256h0a.05131.05131,0,0,0,.04873-.05056C4.3904,9.94648,4.43148,9.245,4.94648,9.021Z" fill="#fff"/><path d="M4.6938,10.04436c-.026-.00312-.05638.03278-.06483.05759a.26236.26236,0,0,0,.0577.226c.1245.13183.1747.1319.237.1319s.14173,0,.05256-.1892A.41786.41786,0,0,0,4.6938,10.04436Z" fill="#fff"/><path d="M9.564,10.425a.64893.64893,0,0,0-.16519.29667.55061.55061,0,0,0,.09364.4718,2.48228,2.48228,0,0,0,.91345.5477,1.82207,1.82207,0,0,0,1.03219.10457,1.97692,1.97692,0,0,0,.85841-.40255c.78484-.62787.78484-.76344.78484-.76344s.07849-.32107-.62074-.88473a2.06571,2.06571,0,0,0-1.04174-.45031.98856.98856,0,0,0-.61653.12554A5.71477,5.71477,0,0,0,9.564,10.425Z" fill="#0b0b16"/><path d="M10.72953,11.182a1.16863,1.16863,0,0,1-.03685-.25914,1.33225,1.33225,0,0,1,.02683-.46913.46851.46851,0,0,1,.30758-.33095,2.14176,2.14176,0,0,0,.35024-.04753.2644.2644,0,0,0,.14372-.163.10159.10159,0,0,0,.00408-.05448.11491.11491,0,0,0-.06458-.06458.59623.59623,0,0,0-.57322.01731,1.14393,1.14393,0,0,0-.19746.16324q-.06966.06721-.13879.135a1.15633,1.15633,0,0,0-.28042.36229,1.08772,1.08772,0,0,0-.06367.37788.74286.74286,0,0,0,.04.33029.677.677,0,0,0,.4409.32267.22049.22049,0,0,0,.14382.01068c.07244-.02777.06035-.0863.0231-.12735A.50506.50506,0,0,1,10.72953,11.182Z" fill="#fff"/><path d="M11.19286,11.36651a.28641.28641,0,0,1-.16846-.13172.27407.27407,0,0,1-.01386-.10591.1048.1048,0,0,1,.01912-.07267.09073.09073,0,0,1,.05894-.023.47375.47375,0,0,1,.22707.04485.266.266,0,0,1,.07814.04573.2795.2795,0,0,1,.04547.05891c.042.06694.08292.186-.01158.233C11.36184,11.44848,11.25182,11.39167,11.19286,11.36651Z" fill="#fff"/></svg>
